<?xml version="1.0" encoding="utf-8" standalone="no"?>
<!DOCTYPE svg PUBLIC "-//W3C//DTD SVG 1.1//EN"
  "http://www.w3.org/Graphics/SVG/1.1/DTD/svg11.dtd">
<svg height="720pt" version="1.1" viewBox="0 0 720 720" width="720pt" xmlns="http://www.w3.org/2000/svg" xmlns:xlink="http://www.w3.org/1999/xlink">
 <metadata>
  <rdf:RDF xmlns:cc="http://creativecommons.org/ns#" xmlns:dc="http://purl.org/dc/elements/1.1/" xmlns:rdf="http://www.w3.org/1999/02/22-rdf-syntax-ns#">
   <cc:Work>
    <dc:type rdf:resource="http://purl.org/dc/dcmitype/StillImage"/>
    <dc:date>2022-08-22T18:53:42.869943</dc:date>
    <dc:format>image/svg+xml</dc:format>
    <dc:creator>
     <cc:Agent>
      <dc:title>Matplotlib v3.4.3, https://matplotlib.org/</dc:title>
     </cc:Agent>
    </dc:creator>
   </cc:Work>
  </rdf:RDF>
 </metadata>
 <defs>
  <style type="text/css">*{stroke-linecap:butt;stroke-linejoin:round;}</style>
 </defs>
 <g id="figure_1">
  <g id="patch_1">
   <path d="M 0 720 
L 720 720 
L 720 0 
L 0 0 
z
" style="fill:#ffffff;"/>
  </g>
  <g id="axes_1">
   <g id="patch_2">
    <path d="M 50.4 698.4 
L 698.4 698.4 
L 698.4 50.4 
L 50.4 50.4 
z
" style="fill:#ffffff;"/>
   </g>
   <g id="PathCollection_1">
    <defs>
     <path d="M 0 1.118034 
C 0.296506 1.118034 0.580908 1.000231 0.790569 0.790569 
C 1.000231 0.580908 1.118034 0.296506 1.118034 -0 
C 1.118034 -0.296506 1.000231 -0.580908 0.790569 -0.790569 
C 0.580908 -1.000231 0.296506 -1.118034 0 -1.118034 
C -0.296506 -1.118034 -0.580908 -1.000231 -0.790569 -0.790569 
C -1.000231 -0.580908 -1.118034 -0.296506 -1.118034 0 
C -1.118034 0.296506 -1.000231 0.580908 -0.790569 0.790569 
C -0.580908 1.000231 -0.296506 1.118034 0 1.118034 
z
" id="C0_0_2b8e051cea"/>
    </defs>
    <g clip-path="url(#p07c5735446)">
     <use style="fill:#ff0000;fill-opacity:0.5;" x="59.04" xlink:href="#C0_0_2b8e051cea" y="61.971429"/>
    </g>
    <g clip-path="url(#p07c5735446)">
     <use style="fill:#ff0000;fill-opacity:0.5;" x="67.68" xlink:href="#C0_0_2b8e051cea" y="73.542857"/>
    </g>
    <g clip-path="url(#p07c5735446)">
     <use style="fill:#ff0000;fill-opacity:0.5;" x="76.32" xlink:href="#C0_0_2b8e051cea" y="85.114286"/>
    </g>
    <g clip-path="url(#p07c5735446)">
     <use style="fill:#ff0000;fill-opacity:0.5;" x="93.6" xlink:href="#C0_0_2b8e051cea" y="96.685714"/>
    </g>
    <g clip-path="url(#p07c5735446)">
     <use style="fill:#ff0000;fill-opacity:0.5;" x="102.24" xlink:href="#C0_0_2b8e051cea" y="108.257143"/>
    </g>
    <g clip-path="url(#p07c5735446)">
     <use style="fill:#ff0000;fill-opacity:0.5;" x="110.88" xlink:href="#C0_0_2b8e051cea" y="119.828571"/>
    </g>
    <g clip-path="url(#p07c5735446)">
     <use style="fill:#ff0000;fill-opacity:0.5;" x="119.52" xlink:href="#C0_0_2b8e051cea" y="131.4"/>
    </g>
    <g clip-path="url(#p07c5735446)">
     <use style="fill:#ff0000;fill-opacity:0.5;" x="128.16" xlink:href="#C0_0_2b8e051cea" y="142.971429"/>
    </g>
    <g clip-path="url(#p07c5735446)">
     <use style="fill:#ff0000;fill-opacity:0.5;" x="154.08" xlink:href="#C0_0_2b8e051cea" y="166.114286"/>
    </g>
    <g clip-path="url(#p07c5735446)">
     <use style="fill:#0000ff;fill-opacity:0.5;" x="162.72" xlink:href="#C0_0_2b8e051cea" y="166.114286"/>
    </g>
    <g clip-path="url(#p07c5735446)">
     <use style="fill:#0000ff;fill-opacity:0.5;" x="171.36" xlink:href="#C0_0_2b8e051cea" y="166.114286"/>
    </g>
    <g clip-path="url(#p07c5735446)">
     <use style="fill:#ff0000;fill-opacity:0.5;" x="145.44" xlink:href="#C0_0_2b8e051cea" y="154.542857"/>
    </g>
    <g clip-path="url(#p07c5735446)">
     <use style="fill:#ff0000;fill-opacity:0.5;" x="162.72" xlink:href="#C0_0_2b8e051cea" y="177.685714"/>
    </g>
    <g clip-path="url(#p07c5735446)">
     <use style="fill:#0000ff;fill-opacity:0.5;" x="154.08" xlink:href="#C0_0_2b8e051cea" y="177.685714"/>
    </g>
    <g clip-path="url(#p07c5735446)">
     <use style="fill:#0000ff;fill-opacity:0.5;" x="171.36" xlink:href="#C0_0_2b8e051cea" y="177.685714"/>
    </g>
    <g clip-path="url(#p07c5735446)">
     <use style="fill:#ff0000;fill-opacity:0.5;" x="162.72" xlink:href="#C0_0_2b8e051cea" y="189.257143"/>
    </g>
    <g clip-path="url(#p07c5735446)">
     <use style="fill:#0000ff;fill-opacity:0.5;" x="154.08" xlink:href="#C0_0_2b8e051cea" y="189.257143"/>
    </g>
    <g clip-path="url(#p07c5735446)">
     <use style="fill:#0000ff;fill-opacity:0.5;" x="171.36" xlink:href="#C0_0_2b8e051cea" y="189.257143"/>
    </g>
    <g clip-path="url(#p07c5735446)">
     <use style="fill:#ff0000;fill-opacity:0.5;" x="162.72" xlink:href="#C0_0_2b8e051cea" y="200.828571"/>
    </g>
    <g clip-path="url(#p07c5735446)">
     <use style="fill:#0000ff;fill-opacity:0.5;" x="154.08" xlink:href="#C0_0_2b8e051cea" y="200.828571"/>
    </g>
    <g clip-path="url(#p07c5735446)">
     <use style="fill:#0000ff;fill-opacity:0.5;" x="171.36" xlink:href="#C0_0_2b8e051cea" y="200.828571"/>
    </g>
    <g clip-path="url(#p07c5735446)">
     <use style="fill:#ff0000;fill-opacity:0.5;" x="154.08" xlink:href="#C0_0_2b8e051cea" y="212.4"/>
    </g>
    <g clip-path="url(#p07c5735446)">
     <use style="fill:#0000ff;fill-opacity:0.5;" x="162.72" xlink:href="#C0_0_2b8e051cea" y="212.4"/>
    </g>
    <g clip-path="url(#p07c5735446)">
     <use style="fill:#0000ff;fill-opacity:0.5;" x="171.36" xlink:href="#C0_0_2b8e051cea" y="212.4"/>
    </g>
    <g clip-path="url(#p07c5735446)">
     <use style="fill:#ff0000;fill-opacity:0.5;" x="171.36" xlink:href="#C0_0_2b8e051cea" y="223.971429"/>
    </g>
    <g clip-path="url(#p07c5735446)">
     <use style="fill:#0000ff;fill-opacity:0.5;" x="154.08" xlink:href="#C0_0_2b8e051cea" y="223.971429"/>
    </g>
    <g clip-path="url(#p07c5735446)">
     <use style="fill:#0000ff;fill-opacity:0.5;" x="162.72" xlink:href="#C0_0_2b8e051cea" y="223.971429"/>
    </g>
    <g clip-path="url(#p07c5735446)">
     <use style="fill:#ff0000;fill-opacity:0.5;" x="180" xlink:href="#C0_0_2b8e051cea" y="235.542857"/>
    </g>
    <g clip-path="url(#p07c5735446)">
     <use style="fill:#ff0000;fill-opacity:0.5;" x="197.28" xlink:href="#C0_0_2b8e051cea" y="247.114286"/>
    </g>
    <g clip-path="url(#p07c5735446)">
     <use style="fill:#ff0000;fill-opacity:0.5;" x="205.92" xlink:href="#C0_0_2b8e051cea" y="258.685714"/>
    </g>
    <g clip-path="url(#p07c5735446)">
     <use style="fill:#ff0000;fill-opacity:0.5;" x="214.56" xlink:href="#C0_0_2b8e051cea" y="270.257143"/>
    </g>
    <g clip-path="url(#p07c5735446)">
     <use style="fill:#ff0000;fill-opacity:0.5;" x="231.84" xlink:href="#C0_0_2b8e051cea" y="281.828571"/>
    </g>
    <g clip-path="url(#p07c5735446)">
     <use style="fill:#0000ff;fill-opacity:0.5;" x="249.12" xlink:href="#C0_0_2b8e051cea" y="281.828571"/>
    </g>
    <g clip-path="url(#p07c5735446)">
     <use style="fill:#0000ff;fill-opacity:0.5;" x="240.48" xlink:href="#C0_0_2b8e051cea" y="281.828571"/>
    </g>
    <g clip-path="url(#p07c5735446)">
     <use style="fill:#0000ff;fill-opacity:0.5;" x="404.64" xlink:href="#C0_0_2b8e051cea" y="281.828571"/>
    </g>
    <g clip-path="url(#p07c5735446)">
     <use style="fill:#0000ff;fill-opacity:0.5;" x="300.96" xlink:href="#C0_0_2b8e051cea" y="281.828571"/>
    </g>
    <g clip-path="url(#p07c5735446)">
     <use style="fill:#0000ff;fill-opacity:0.5;" x="283.68" xlink:href="#C0_0_2b8e051cea" y="281.828571"/>
    </g>
    <g clip-path="url(#p07c5735446)">
     <use style="fill:#808080;fill-opacity:0.5;" x="257.76" xlink:href="#C0_0_2b8e051cea" y="281.828571"/>
    </g>
    <g clip-path="url(#p07c5735446)">
     <use style="fill:#808080;fill-opacity:0.5;" x="387.36" xlink:href="#C0_0_2b8e051cea" y="281.828571"/>
    </g>
    <g clip-path="url(#p07c5735446)">
     <use style="fill:#808080;fill-opacity:0.5;" x="335.52" xlink:href="#C0_0_2b8e051cea" y="281.828571"/>
    </g>
    <g clip-path="url(#p07c5735446)">
     <use style="fill:#808080;fill-opacity:0.5;" x="309.6" xlink:href="#C0_0_2b8e051cea" y="281.828571"/>
    </g>
    <g clip-path="url(#p07c5735446)">
     <use style="fill:#ff0000;fill-opacity:0.5;" x="240.48" xlink:href="#C0_0_2b8e051cea" y="293.4"/>
    </g>
    <g clip-path="url(#p07c5735446)">
     <use style="fill:#0000ff;fill-opacity:0.5;" x="231.84" xlink:href="#C0_0_2b8e051cea" y="293.4"/>
    </g>
    <g clip-path="url(#p07c5735446)">
     <use style="fill:#0000ff;fill-opacity:0.5;" x="249.12" xlink:href="#C0_0_2b8e051cea" y="293.4"/>
    </g>
    <g clip-path="url(#p07c5735446)">
     <use style="fill:#0000ff;fill-opacity:0.5;" x="404.64" xlink:href="#C0_0_2b8e051cea" y="293.4"/>
    </g>
    <g clip-path="url(#p07c5735446)">
     <use style="fill:#0000ff;fill-opacity:0.5;" x="257.76" xlink:href="#C0_0_2b8e051cea" y="293.4"/>
    </g>
    <g clip-path="url(#p07c5735446)">
     <use style="fill:#0000ff;fill-opacity:0.5;" x="300.96" xlink:href="#C0_0_2b8e051cea" y="293.4"/>
    </g>
    <g clip-path="url(#p07c5735446)">
     <use style="fill:#808080;fill-opacity:0.5;" x="283.68" xlink:href="#C0_0_2b8e051cea" y="293.4"/>
    </g>
    <g clip-path="url(#p07c5735446)">
     <use style="fill:#808080;fill-opacity:0.5;" x="309.6" xlink:href="#C0_0_2b8e051cea" y="293.4"/>
    </g>
    <g clip-path="url(#p07c5735446)">
     <use style="fill:#ff0000;fill-opacity:0.5;" x="249.12" xlink:href="#C0_0_2b8e051cea" y="304.971429"/>
    </g>
    <g clip-path="url(#p07c5735446)">
     <use style="fill:#0000ff;fill-opacity:0.5;" x="231.84" xlink:href="#C0_0_2b8e051cea" y="304.971429"/>
    </g>
    <g clip-path="url(#p07c5735446)">
     <use style="fill:#0000ff;fill-opacity:0.5;" x="240.48" xlink:href="#C0_0_2b8e051cea" y="304.971429"/>
    </g>
    <g clip-path="url(#p07c5735446)">
     <use style="fill:#0000ff;fill-opacity:0.5;" x="283.68" xlink:href="#C0_0_2b8e051cea" y="304.971429"/>
    </g>
    <g clip-path="url(#p07c5735446)">
     <use style="fill:#0000ff;fill-opacity:0.5;" x="300.96" xlink:href="#C0_0_2b8e051cea" y="304.971429"/>
    </g>
    <g clip-path="url(#p07c5735446)">
     <use style="fill:#0000ff;fill-opacity:0.5;" x="257.76" xlink:href="#C0_0_2b8e051cea" y="304.971429"/>
    </g>
    <g clip-path="url(#p07c5735446)">
     <use style="fill:#808080;fill-opacity:0.5;" x="404.64" xlink:href="#C0_0_2b8e051cea" y="304.971429"/>
    </g>
    <g clip-path="url(#p07c5735446)">
     <use style="fill:#808080;fill-opacity:0.5;" x="387.36" xlink:href="#C0_0_2b8e051cea" y="304.971429"/>
    </g>
    <g clip-path="url(#p07c5735446)">
     <use style="fill:#808080;fill-opacity:0.5;" x="335.52" xlink:href="#C0_0_2b8e051cea" y="304.971429"/>
    </g>
    <g clip-path="url(#p07c5735446)">
     <use style="fill:#808080;fill-opacity:0.5;" x="309.6" xlink:href="#C0_0_2b8e051cea" y="304.971429"/>
    </g>
    <g clip-path="url(#p07c5735446)">
     <use style="fill:#ff0000;fill-opacity:0.5;" x="292.32" xlink:href="#C0_0_2b8e051cea" y="316.542857"/>
    </g>
    <g clip-path="url(#p07c5735446)">
     <use style="fill:#0000ff;fill-opacity:0.5;" x="275.04" xlink:href="#C0_0_2b8e051cea" y="316.542857"/>
    </g>
    <g clip-path="url(#p07c5735446)">
     <use style="fill:#0000ff;fill-opacity:0.5;" x="413.28" xlink:href="#C0_0_2b8e051cea" y="316.542857"/>
    </g>
    <g clip-path="url(#p07c5735446)">
     <use style="fill:#0000ff;fill-opacity:0.5;" x="421.92" xlink:href="#C0_0_2b8e051cea" y="316.542857"/>
    </g>
    <g clip-path="url(#p07c5735446)">
     <use style="fill:#0000ff;fill-opacity:0.5;" x="266.4" xlink:href="#C0_0_2b8e051cea" y="316.542857"/>
    </g>
    <g clip-path="url(#p07c5735446)">
     <use style="fill:#ff0000;fill-opacity:0.5;" x="257.76" xlink:href="#C0_0_2b8e051cea" y="328.114286"/>
    </g>
    <g clip-path="url(#p07c5735446)">
     <use style="fill:#0000ff;fill-opacity:0.5;" x="231.84" xlink:href="#C0_0_2b8e051cea" y="328.114286"/>
    </g>
    <g clip-path="url(#p07c5735446)">
     <use style="fill:#0000ff;fill-opacity:0.5;" x="249.12" xlink:href="#C0_0_2b8e051cea" y="328.114286"/>
    </g>
    <g clip-path="url(#p07c5735446)">
     <use style="fill:#0000ff;fill-opacity:0.5;" x="240.48" xlink:href="#C0_0_2b8e051cea" y="328.114286"/>
    </g>
    <g clip-path="url(#p07c5735446)">
     <use style="fill:#0000ff;fill-opacity:0.5;" x="283.68" xlink:href="#C0_0_2b8e051cea" y="328.114286"/>
    </g>
    <g clip-path="url(#p07c5735446)">
     <use style="fill:#0000ff;fill-opacity:0.5;" x="404.64" xlink:href="#C0_0_2b8e051cea" y="328.114286"/>
    </g>
    <g clip-path="url(#p07c5735446)">
     <use style="fill:#808080;fill-opacity:0.5;" x="300.96" xlink:href="#C0_0_2b8e051cea" y="328.114286"/>
    </g>
    <g clip-path="url(#p07c5735446)">
     <use style="fill:#ff0000;fill-opacity:0.5;" x="266.4" xlink:href="#C0_0_2b8e051cea" y="339.685714"/>
    </g>
    <g clip-path="url(#p07c5735446)">
     <use style="fill:#ff0000;fill-opacity:0.5;" x="292.32" xlink:href="#C0_0_2b8e051cea" y="351.257143"/>
    </g>
    <g clip-path="url(#p07c5735446)">
     <use style="fill:#0000ff;fill-opacity:0.5;" x="275.04" xlink:href="#C0_0_2b8e051cea" y="351.257143"/>
    </g>
    <g clip-path="url(#p07c5735446)">
     <use style="fill:#0000ff;fill-opacity:0.5;" x="413.28" xlink:href="#C0_0_2b8e051cea" y="351.257143"/>
    </g>
    <g clip-path="url(#p07c5735446)">
     <use style="fill:#0000ff;fill-opacity:0.5;" x="266.4" xlink:href="#C0_0_2b8e051cea" y="351.257143"/>
    </g>
    <g clip-path="url(#p07c5735446)">
     <use style="fill:#0000ff;fill-opacity:0.5;" x="421.92" xlink:href="#C0_0_2b8e051cea" y="351.257143"/>
    </g>
    <g clip-path="url(#p07c5735446)">
     <use style="fill:#ff0000;fill-opacity:0.5;" x="283.68" xlink:href="#C0_0_2b8e051cea" y="362.828571"/>
    </g>
    <g clip-path="url(#p07c5735446)">
     <use style="fill:#0000ff;fill-opacity:0.5;" x="300.96" xlink:href="#C0_0_2b8e051cea" y="362.828571"/>
    </g>
    <g clip-path="url(#p07c5735446)">
     <use style="fill:#0000ff;fill-opacity:0.5;" x="344.16" xlink:href="#C0_0_2b8e051cea" y="362.828571"/>
    </g>
    <g clip-path="url(#p07c5735446)">
     <use style="fill:#0000ff;fill-opacity:0.5;" x="309.6" xlink:href="#C0_0_2b8e051cea" y="362.828571"/>
    </g>
    <g clip-path="url(#p07c5735446)">
     <use style="fill:#0000ff;fill-opacity:0.5;" x="326.88" xlink:href="#C0_0_2b8e051cea" y="362.828571"/>
    </g>
    <g clip-path="url(#p07c5735446)">
     <use style="fill:#0000ff;fill-opacity:0.5;" x="318.24" xlink:href="#C0_0_2b8e051cea" y="362.828571"/>
    </g>
    <g clip-path="url(#p07c5735446)">
     <use style="fill:#808080;fill-opacity:0.5;" x="387.36" xlink:href="#C0_0_2b8e051cea" y="362.828571"/>
    </g>
    <g clip-path="url(#p07c5735446)">
     <use style="fill:#808080;fill-opacity:0.5;" x="335.52" xlink:href="#C0_0_2b8e051cea" y="362.828571"/>
    </g>
    <g clip-path="url(#p07c5735446)">
     <use style="fill:#808080;fill-opacity:0.5;" x="249.12" xlink:href="#C0_0_2b8e051cea" y="362.828571"/>
    </g>
    <g clip-path="url(#p07c5735446)">
     <use style="fill:#808080;fill-opacity:0.5;" x="378.72" xlink:href="#C0_0_2b8e051cea" y="362.828571"/>
    </g>
    <g clip-path="url(#p07c5735446)">
     <use style="fill:#ff0000;fill-opacity:0.5;" x="292.32" xlink:href="#C0_0_2b8e051cea" y="374.4"/>
    </g>
    <g clip-path="url(#p07c5735446)">
     <use style="fill:#0000ff;fill-opacity:0.5;" x="275.04" xlink:href="#C0_0_2b8e051cea" y="374.4"/>
    </g>
    <g clip-path="url(#p07c5735446)">
     <use style="fill:#0000ff;fill-opacity:0.5;" x="413.28" xlink:href="#C0_0_2b8e051cea" y="374.4"/>
    </g>
    <g clip-path="url(#p07c5735446)">
     <use style="fill:#0000ff;fill-opacity:0.5;" x="266.4" xlink:href="#C0_0_2b8e051cea" y="374.4"/>
    </g>
    <g clip-path="url(#p07c5735446)">
     <use style="fill:#0000ff;fill-opacity:0.5;" x="421.92" xlink:href="#C0_0_2b8e051cea" y="374.4"/>
    </g>
    <g clip-path="url(#p07c5735446)">
     <use style="fill:#ff0000;fill-opacity:0.5;" x="300.96" xlink:href="#C0_0_2b8e051cea" y="385.971429"/>
    </g>
    <g clip-path="url(#p07c5735446)">
     <use style="fill:#0000ff;fill-opacity:0.5;" x="283.68" xlink:href="#C0_0_2b8e051cea" y="385.971429"/>
    </g>
    <g clip-path="url(#p07c5735446)">
     <use style="fill:#0000ff;fill-opacity:0.5;" x="352.8" xlink:href="#C0_0_2b8e051cea" y="385.971429"/>
    </g>
    <g clip-path="url(#p07c5735446)">
     <use style="fill:#0000ff;fill-opacity:0.5;" x="387.36" xlink:href="#C0_0_2b8e051cea" y="385.971429"/>
    </g>
    <g clip-path="url(#p07c5735446)">
     <use style="fill:#0000ff;fill-opacity:0.5;" x="318.24" xlink:href="#C0_0_2b8e051cea" y="385.971429"/>
    </g>
    <g clip-path="url(#p07c5735446)">
     <use style="fill:#0000ff;fill-opacity:0.5;" x="344.16" xlink:href="#C0_0_2b8e051cea" y="385.971429"/>
    </g>
    <g clip-path="url(#p07c5735446)">
     <use style="fill:#808080;fill-opacity:0.5;" x="326.88" xlink:href="#C0_0_2b8e051cea" y="385.971429"/>
    </g>
    <g clip-path="url(#p07c5735446)">
     <use style="fill:#808080;fill-opacity:0.5;" x="309.6" xlink:href="#C0_0_2b8e051cea" y="385.971429"/>
    </g>
    <g clip-path="url(#p07c5735446)">
     <use style="fill:#808080;fill-opacity:0.5;" x="335.52" xlink:href="#C0_0_2b8e051cea" y="385.971429"/>
    </g>
    <g clip-path="url(#p07c5735446)">
     <use style="fill:#808080;fill-opacity:0.5;" x="378.72" xlink:href="#C0_0_2b8e051cea" y="385.971429"/>
    </g>
    <g clip-path="url(#p07c5735446)">
     <use style="fill:#ff0000;fill-opacity:0.5;" x="309.6" xlink:href="#C0_0_2b8e051cea" y="397.542857"/>
    </g>
    <g clip-path="url(#p07c5735446)">
     <use style="fill:#0000ff;fill-opacity:0.5;" x="387.36" xlink:href="#C0_0_2b8e051cea" y="397.542857"/>
    </g>
    <g clip-path="url(#p07c5735446)">
     <use style="fill:#0000ff;fill-opacity:0.5;" x="378.72" xlink:href="#C0_0_2b8e051cea" y="397.542857"/>
    </g>
    <g clip-path="url(#p07c5735446)">
     <use style="fill:#0000ff;fill-opacity:0.5;" x="335.52" xlink:href="#C0_0_2b8e051cea" y="397.542857"/>
    </g>
    <g clip-path="url(#p07c5735446)">
     <use style="fill:#0000ff;fill-opacity:0.5;" x="352.8" xlink:href="#C0_0_2b8e051cea" y="397.542857"/>
    </g>
    <g clip-path="url(#p07c5735446)">
     <use style="fill:#0000ff;fill-opacity:0.5;" x="326.88" xlink:href="#C0_0_2b8e051cea" y="397.542857"/>
    </g>
    <g clip-path="url(#p07c5735446)">
     <use style="fill:#808080;fill-opacity:0.5;" x="344.16" xlink:href="#C0_0_2b8e051cea" y="397.542857"/>
    </g>
    <g clip-path="url(#p07c5735446)">
     <use style="fill:#808080;fill-opacity:0.5;" x="318.24" xlink:href="#C0_0_2b8e051cea" y="397.542857"/>
    </g>
    <g clip-path="url(#p07c5735446)">
     <use style="fill:#808080;fill-opacity:0.5;" x="370.08" xlink:href="#C0_0_2b8e051cea" y="397.542857"/>
    </g>
    <g clip-path="url(#p07c5735446)">
     <use style="fill:#808080;fill-opacity:0.5;" x="283.68" xlink:href="#C0_0_2b8e051cea" y="397.542857"/>
    </g>
    <g clip-path="url(#p07c5735446)">
     <use style="fill:#ff0000;fill-opacity:0.5;" x="318.24" xlink:href="#C0_0_2b8e051cea" y="409.114286"/>
    </g>
    <g clip-path="url(#p07c5735446)">
     <use style="fill:#0000ff;fill-opacity:0.5;" x="335.52" xlink:href="#C0_0_2b8e051cea" y="409.114286"/>
    </g>
    <g clip-path="url(#p07c5735446)">
     <use style="fill:#0000ff;fill-opacity:0.5;" x="387.36" xlink:href="#C0_0_2b8e051cea" y="409.114286"/>
    </g>
    <g clip-path="url(#p07c5735446)">
     <use style="fill:#0000ff;fill-opacity:0.5;" x="352.8" xlink:href="#C0_0_2b8e051cea" y="409.114286"/>
    </g>
    <g clip-path="url(#p07c5735446)">
     <use style="fill:#0000ff;fill-opacity:0.5;" x="378.72" xlink:href="#C0_0_2b8e051cea" y="409.114286"/>
    </g>
    <g clip-path="url(#p07c5735446)">
     <use style="fill:#0000ff;fill-opacity:0.5;" x="344.16" xlink:href="#C0_0_2b8e051cea" y="409.114286"/>
    </g>
    <g clip-path="url(#p07c5735446)">
     <use style="fill:#808080;fill-opacity:0.5;" x="326.88" xlink:href="#C0_0_2b8e051cea" y="409.114286"/>
    </g>
    <g clip-path="url(#p07c5735446)">
     <use style="fill:#808080;fill-opacity:0.5;" x="309.6" xlink:href="#C0_0_2b8e051cea" y="409.114286"/>
    </g>
    <g clip-path="url(#p07c5735446)">
     <use style="fill:#808080;fill-opacity:0.5;" x="300.96" xlink:href="#C0_0_2b8e051cea" y="409.114286"/>
    </g>
    <g clip-path="url(#p07c5735446)">
     <use style="fill:#808080;fill-opacity:0.5;" x="370.08" xlink:href="#C0_0_2b8e051cea" y="409.114286"/>
    </g>
    <g clip-path="url(#p07c5735446)">
     <use style="fill:#ff0000;fill-opacity:0.5;" x="326.88" xlink:href="#C0_0_2b8e051cea" y="420.685714"/>
    </g>
    <g clip-path="url(#p07c5735446)">
     <use style="fill:#0000ff;fill-opacity:0.5;" x="344.16" xlink:href="#C0_0_2b8e051cea" y="420.685714"/>
    </g>
    <g clip-path="url(#p07c5735446)">
     <use style="fill:#0000ff;fill-opacity:0.5;" x="387.36" xlink:href="#C0_0_2b8e051cea" y="420.685714"/>
    </g>
    <g clip-path="url(#p07c5735446)">
     <use style="fill:#0000ff;fill-opacity:0.5;" x="335.52" xlink:href="#C0_0_2b8e051cea" y="420.685714"/>
    </g>
    <g clip-path="url(#p07c5735446)">
     <use style="fill:#0000ff;fill-opacity:0.5;" x="318.24" xlink:href="#C0_0_2b8e051cea" y="420.685714"/>
    </g>
    <g clip-path="url(#p07c5735446)">
     <use style="fill:#0000ff;fill-opacity:0.5;" x="378.72" xlink:href="#C0_0_2b8e051cea" y="420.685714"/>
    </g>
    <g clip-path="url(#p07c5735446)">
     <use style="fill:#808080;fill-opacity:0.5;" x="352.8" xlink:href="#C0_0_2b8e051cea" y="420.685714"/>
    </g>
    <g clip-path="url(#p07c5735446)">
     <use style="fill:#808080;fill-opacity:0.5;" x="309.6" xlink:href="#C0_0_2b8e051cea" y="420.685714"/>
    </g>
    <g clip-path="url(#p07c5735446)">
     <use style="fill:#808080;fill-opacity:0.5;" x="370.08" xlink:href="#C0_0_2b8e051cea" y="420.685714"/>
    </g>
    <g clip-path="url(#p07c5735446)">
     <use style="fill:#808080;fill-opacity:0.5;" x="283.68" xlink:href="#C0_0_2b8e051cea" y="420.685714"/>
    </g>
    <g clip-path="url(#p07c5735446)">
     <use style="fill:#ff0000;fill-opacity:0.5;" x="352.8" xlink:href="#C0_0_2b8e051cea" y="432.257143"/>
    </g>
    <g clip-path="url(#p07c5735446)">
     <use style="fill:#0000ff;fill-opacity:0.5;" x="335.52" xlink:href="#C0_0_2b8e051cea" y="432.257143"/>
    </g>
    <g clip-path="url(#p07c5735446)">
     <use style="fill:#0000ff;fill-opacity:0.5;" x="378.72" xlink:href="#C0_0_2b8e051cea" y="432.257143"/>
    </g>
    <g clip-path="url(#p07c5735446)">
     <use style="fill:#0000ff;fill-opacity:0.5;" x="387.36" xlink:href="#C0_0_2b8e051cea" y="432.257143"/>
    </g>
    <g clip-path="url(#p07c5735446)">
     <use style="fill:#0000ff;fill-opacity:0.5;" x="309.6" xlink:href="#C0_0_2b8e051cea" y="432.257143"/>
    </g>
    <g clip-path="url(#p07c5735446)">
     <use style="fill:#0000ff;fill-opacity:0.5;" x="344.16" xlink:href="#C0_0_2b8e051cea" y="432.257143"/>
    </g>
    <g clip-path="url(#p07c5735446)">
     <use style="fill:#808080;fill-opacity:0.5;" x="318.24" xlink:href="#C0_0_2b8e051cea" y="432.257143"/>
    </g>
    <g clip-path="url(#p07c5735446)">
     <use style="fill:#808080;fill-opacity:0.5;" x="326.88" xlink:href="#C0_0_2b8e051cea" y="432.257143"/>
    </g>
    <g clip-path="url(#p07c5735446)">
     <use style="fill:#808080;fill-opacity:0.5;" x="370.08" xlink:href="#C0_0_2b8e051cea" y="432.257143"/>
    </g>
    <g clip-path="url(#p07c5735446)">
     <use style="fill:#808080;fill-opacity:0.5;" x="300.96" xlink:href="#C0_0_2b8e051cea" y="432.257143"/>
    </g>
    <g clip-path="url(#p07c5735446)">
     <use style="fill:#ff0000;fill-opacity:0.5;" x="335.52" xlink:href="#C0_0_2b8e051cea" y="443.828571"/>
    </g>
    <g clip-path="url(#p07c5735446)">
     <use style="fill:#0000ff;fill-opacity:0.5;" x="387.36" xlink:href="#C0_0_2b8e051cea" y="443.828571"/>
    </g>
    <g clip-path="url(#p07c5735446)">
     <use style="fill:#0000ff;fill-opacity:0.5;" x="352.8" xlink:href="#C0_0_2b8e051cea" y="443.828571"/>
    </g>
    <g clip-path="url(#p07c5735446)">
     <use style="fill:#0000ff;fill-opacity:0.5;" x="378.72" xlink:href="#C0_0_2b8e051cea" y="443.828571"/>
    </g>
    <g clip-path="url(#p07c5735446)">
     <use style="fill:#0000ff;fill-opacity:0.5;" x="318.24" xlink:href="#C0_0_2b8e051cea" y="443.828571"/>
    </g>
    <g clip-path="url(#p07c5735446)">
     <use style="fill:#0000ff;fill-opacity:0.5;" x="344.16" xlink:href="#C0_0_2b8e051cea" y="443.828571"/>
    </g>
    <g clip-path="url(#p07c5735446)">
     <use style="fill:#808080;fill-opacity:0.5;" x="309.6" xlink:href="#C0_0_2b8e051cea" y="443.828571"/>
    </g>
    <g clip-path="url(#p07c5735446)">
     <use style="fill:#808080;fill-opacity:0.5;" x="326.88" xlink:href="#C0_0_2b8e051cea" y="443.828571"/>
    </g>
    <g clip-path="url(#p07c5735446)">
     <use style="fill:#808080;fill-opacity:0.5;" x="370.08" xlink:href="#C0_0_2b8e051cea" y="443.828571"/>
    </g>
    <g clip-path="url(#p07c5735446)">
     <use style="fill:#808080;fill-opacity:0.5;" x="300.96" xlink:href="#C0_0_2b8e051cea" y="443.828571"/>
    </g>
    <g clip-path="url(#p07c5735446)">
     <use style="fill:#ff0000;fill-opacity:0.5;" x="352.8" xlink:href="#C0_0_2b8e051cea" y="455.4"/>
    </g>
    <g clip-path="url(#p07c5735446)">
     <use style="fill:#0000ff;fill-opacity:0.5;" x="335.52" xlink:href="#C0_0_2b8e051cea" y="455.4"/>
    </g>
    <g clip-path="url(#p07c5735446)">
     <use style="fill:#0000ff;fill-opacity:0.5;" x="378.72" xlink:href="#C0_0_2b8e051cea" y="455.4"/>
    </g>
    <g clip-path="url(#p07c5735446)">
     <use style="fill:#0000ff;fill-opacity:0.5;" x="387.36" xlink:href="#C0_0_2b8e051cea" y="455.4"/>
    </g>
    <g clip-path="url(#p07c5735446)">
     <use style="fill:#0000ff;fill-opacity:0.5;" x="344.16" xlink:href="#C0_0_2b8e051cea" y="455.4"/>
    </g>
    <g clip-path="url(#p07c5735446)">
     <use style="fill:#0000ff;fill-opacity:0.5;" x="309.6" xlink:href="#C0_0_2b8e051cea" y="455.4"/>
    </g>
    <g clip-path="url(#p07c5735446)">
     <use style="fill:#808080;fill-opacity:0.5;" x="318.24" xlink:href="#C0_0_2b8e051cea" y="455.4"/>
    </g>
    <g clip-path="url(#p07c5735446)">
     <use style="fill:#808080;fill-opacity:0.5;" x="326.88" xlink:href="#C0_0_2b8e051cea" y="455.4"/>
    </g>
    <g clip-path="url(#p07c5735446)">
     <use style="fill:#808080;fill-opacity:0.5;" x="300.96" xlink:href="#C0_0_2b8e051cea" y="455.4"/>
    </g>
    <g clip-path="url(#p07c5735446)">
     <use style="fill:#808080;fill-opacity:0.5;" x="370.08" xlink:href="#C0_0_2b8e051cea" y="455.4"/>
    </g>
    <g clip-path="url(#p07c5735446)">
     <use style="fill:#ff0000;fill-opacity:0.5;" x="387.36" xlink:href="#C0_0_2b8e051cea" y="466.971429"/>
    </g>
    <g clip-path="url(#p07c5735446)">
     <use style="fill:#0000ff;fill-opacity:0.5;" x="335.52" xlink:href="#C0_0_2b8e051cea" y="466.971429"/>
    </g>
    <g clip-path="url(#p07c5735446)">
     <use style="fill:#0000ff;fill-opacity:0.5;" x="352.8" xlink:href="#C0_0_2b8e051cea" y="466.971429"/>
    </g>
    <g clip-path="url(#p07c5735446)">
     <use style="fill:#0000ff;fill-opacity:0.5;" x="378.72" xlink:href="#C0_0_2b8e051cea" y="466.971429"/>
    </g>
    <g clip-path="url(#p07c5735446)">
     <use style="fill:#0000ff;fill-opacity:0.5;" x="318.24" xlink:href="#C0_0_2b8e051cea" y="466.971429"/>
    </g>
    <g clip-path="url(#p07c5735446)">
     <use style="fill:#0000ff;fill-opacity:0.5;" x="344.16" xlink:href="#C0_0_2b8e051cea" y="466.971429"/>
    </g>
    <g clip-path="url(#p07c5735446)">
     <use style="fill:#808080;fill-opacity:0.5;" x="326.88" xlink:href="#C0_0_2b8e051cea" y="466.971429"/>
    </g>
    <g clip-path="url(#p07c5735446)">
     <use style="fill:#808080;fill-opacity:0.5;" x="309.6" xlink:href="#C0_0_2b8e051cea" y="466.971429"/>
    </g>
    <g clip-path="url(#p07c5735446)">
     <use style="fill:#808080;fill-opacity:0.5;" x="370.08" xlink:href="#C0_0_2b8e051cea" y="466.971429"/>
    </g>
    <g clip-path="url(#p07c5735446)">
     <use style="fill:#808080;fill-opacity:0.5;" x="300.96" xlink:href="#C0_0_2b8e051cea" y="466.971429"/>
    </g>
    <g clip-path="url(#p07c5735446)">
     <use style="fill:#ff0000;fill-opacity:0.5;" x="396" xlink:href="#C0_0_2b8e051cea" y="478.542857"/>
    </g>
    <g clip-path="url(#p07c5735446)">
     <use style="fill:#ff0000;fill-opacity:0.5;" x="404.64" xlink:href="#C0_0_2b8e051cea" y="490.114286"/>
    </g>
    <g clip-path="url(#p07c5735446)">
     <use style="fill:#0000ff;fill-opacity:0.5;" x="231.84" xlink:href="#C0_0_2b8e051cea" y="490.114286"/>
    </g>
    <g clip-path="url(#p07c5735446)">
     <use style="fill:#0000ff;fill-opacity:0.5;" x="240.48" xlink:href="#C0_0_2b8e051cea" y="490.114286"/>
    </g>
    <g clip-path="url(#p07c5735446)">
     <use style="fill:#0000ff;fill-opacity:0.5;" x="257.76" xlink:href="#C0_0_2b8e051cea" y="490.114286"/>
    </g>
    <g clip-path="url(#p07c5735446)">
     <use style="fill:#0000ff;fill-opacity:0.5;" x="300.96" xlink:href="#C0_0_2b8e051cea" y="490.114286"/>
    </g>
    <g clip-path="url(#p07c5735446)">
     <use style="fill:#0000ff;fill-opacity:0.5;" x="249.12" xlink:href="#C0_0_2b8e051cea" y="490.114286"/>
    </g>
    <g clip-path="url(#p07c5735446)">
     <use style="fill:#808080;fill-opacity:0.5;" x="335.52" xlink:href="#C0_0_2b8e051cea" y="490.114286"/>
    </g>
    <g clip-path="url(#p07c5735446)">
     <use style="fill:#808080;fill-opacity:0.5;" x="387.36" xlink:href="#C0_0_2b8e051cea" y="490.114286"/>
    </g>
    <g clip-path="url(#p07c5735446)">
     <use style="fill:#808080;fill-opacity:0.5;" x="344.16" xlink:href="#C0_0_2b8e051cea" y="490.114286"/>
    </g>
    <g clip-path="url(#p07c5735446)">
     <use style="fill:#ff0000;fill-opacity:0.5;" x="413.28" xlink:href="#C0_0_2b8e051cea" y="501.685714"/>
    </g>
    <g clip-path="url(#p07c5735446)">
     <use style="fill:#0000ff;fill-opacity:0.5;" x="421.92" xlink:href="#C0_0_2b8e051cea" y="501.685714"/>
    </g>
    <g clip-path="url(#p07c5735446)">
     <use style="fill:#0000ff;fill-opacity:0.5;" x="292.32" xlink:href="#C0_0_2b8e051cea" y="501.685714"/>
    </g>
    <g clip-path="url(#p07c5735446)">
     <use style="fill:#0000ff;fill-opacity:0.5;" x="275.04" xlink:href="#C0_0_2b8e051cea" y="501.685714"/>
    </g>
    <g clip-path="url(#p07c5735446)">
     <use style="fill:#ff0000;fill-opacity:0.5;" x="413.28" xlink:href="#C0_0_2b8e051cea" y="513.257143"/>
    </g>
    <g clip-path="url(#p07c5735446)">
     <use style="fill:#0000ff;fill-opacity:0.5;" x="421.92" xlink:href="#C0_0_2b8e051cea" y="513.257143"/>
    </g>
    <g clip-path="url(#p07c5735446)">
     <use style="fill:#0000ff;fill-opacity:0.5;" x="292.32" xlink:href="#C0_0_2b8e051cea" y="513.257143"/>
    </g>
    <g clip-path="url(#p07c5735446)">
     <use style="fill:#0000ff;fill-opacity:0.5;" x="275.04" xlink:href="#C0_0_2b8e051cea" y="513.257143"/>
    </g>
    <g clip-path="url(#p07c5735446)">
     <use style="fill:#ff0000;fill-opacity:0.5;" x="421.92" xlink:href="#C0_0_2b8e051cea" y="524.828571"/>
    </g>
    <g clip-path="url(#p07c5735446)">
     <use style="fill:#0000ff;fill-opacity:0.5;" x="413.28" xlink:href="#C0_0_2b8e051cea" y="524.828571"/>
    </g>
    <g clip-path="url(#p07c5735446)">
     <use style="fill:#0000ff;fill-opacity:0.5;" x="292.32" xlink:href="#C0_0_2b8e051cea" y="524.828571"/>
    </g>
    <g clip-path="url(#p07c5735446)">
     <use style="fill:#0000ff;fill-opacity:0.5;" x="275.04" xlink:href="#C0_0_2b8e051cea" y="524.828571"/>
    </g>
    <g clip-path="url(#p07c5735446)">
     <use style="fill:#ff0000;fill-opacity:0.5;" x="413.28" xlink:href="#C0_0_2b8e051cea" y="536.4"/>
    </g>
    <g clip-path="url(#p07c5735446)">
     <use style="fill:#0000ff;fill-opacity:0.5;" x="421.92" xlink:href="#C0_0_2b8e051cea" y="536.4"/>
    </g>
    <g clip-path="url(#p07c5735446)">
     <use style="fill:#0000ff;fill-opacity:0.5;" x="292.32" xlink:href="#C0_0_2b8e051cea" y="536.4"/>
    </g>
    <g clip-path="url(#p07c5735446)">
     <use style="fill:#0000ff;fill-opacity:0.5;" x="275.04" xlink:href="#C0_0_2b8e051cea" y="536.4"/>
    </g>
    <g clip-path="url(#p07c5735446)">
     <use style="fill:#ff0000;fill-opacity:0.5;" x="430.56" xlink:href="#C0_0_2b8e051cea" y="547.971429"/>
    </g>
    <g clip-path="url(#p07c5735446)">
     <use style="fill:#ff0000;fill-opacity:0.5;" x="439.2" xlink:href="#C0_0_2b8e051cea" y="559.542857"/>
    </g>
    <g clip-path="url(#p07c5735446)">
     <use style="fill:#ff0000;fill-opacity:0.5;" x="447.84" xlink:href="#C0_0_2b8e051cea" y="571.114286"/>
    </g>
    <g clip-path="url(#p07c5735446)">
     <use style="fill:#ff0000;fill-opacity:0.5;" x="456.48" xlink:href="#C0_0_2b8e051cea" y="582.685714"/>
    </g>
    <g clip-path="url(#p07c5735446)">
     <use style="fill:#ff0000;fill-opacity:0.5;" x="465.12" xlink:href="#C0_0_2b8e051cea" y="594.257143"/>
    </g>
    <g clip-path="url(#p07c5735446)">
     <use style="fill:#ff0000;fill-opacity:0.5;" x="482.4" xlink:href="#C0_0_2b8e051cea" y="605.828571"/>
    </g>
    <g clip-path="url(#p07c5735446)">
     <use style="fill:#ff0000;fill-opacity:0.5;" x="491.04" xlink:href="#C0_0_2b8e051cea" y="617.4"/>
    </g>
    <g clip-path="url(#p07c5735446)">
     <use style="fill:#ff0000;fill-opacity:0.5;" x="508.32" xlink:href="#C0_0_2b8e051cea" y="628.971429"/>
    </g>
    <g clip-path="url(#p07c5735446)">
     <use style="fill:#ff0000;fill-opacity:0.5;" x="516.96" xlink:href="#C0_0_2b8e051cea" y="640.542857"/>
    </g>
    <g clip-path="url(#p07c5735446)">
     <use style="fill:#ff0000;fill-opacity:0.5;" x="525.6" xlink:href="#C0_0_2b8e051cea" y="652.114286"/>
    </g>
    <g clip-path="url(#p07c5735446)">
     <use style="fill:#ff0000;fill-opacity:0.5;" x="534.24" xlink:href="#C0_0_2b8e051cea" y="663.685714"/>
    </g>
    <g clip-path="url(#p07c5735446)">
     <use style="fill:#ff0000;fill-opacity:0.5;" x="560.16" xlink:href="#C0_0_2b8e051cea" y="675.257143"/>
    </g>
    <g clip-path="url(#p07c5735446)">
     <use style="fill:#0000ff;fill-opacity:0.5;" x="568.8" xlink:href="#C0_0_2b8e051cea" y="675.257143"/>
    </g>
    <g clip-path="url(#p07c5735446)">
     <use style="fill:#ff0000;fill-opacity:0.5;" x="568.8" xlink:href="#C0_0_2b8e051cea" y="686.828571"/>
    </g>
    <g clip-path="url(#p07c5735446)">
     <use style="fill:#0000ff;fill-opacity:0.5;" x="560.16" xlink:href="#C0_0_2b8e051cea" y="686.828571"/>
    </g>
    <g clip-path="url(#p07c5735446)">
     <use style="fill:#ff0000;fill-opacity:0.5;" x="577.44" xlink:href="#C0_0_2b8e051cea" y="698.4"/>
    </g>
   </g>
   <g id="matplotlib.axis_1"/>
   <g id="matplotlib.axis_2"/>
   <g id="patch_3">
    <path d="M 50.4 698.4 
L 50.4 50.4 
" style="fill:none;stroke:#000000;stroke-linecap:square;stroke-linejoin:miter;stroke-width:0.8;"/>
   </g>
   <g id="patch_4">
    <path d="M 698.4 698.4 
L 698.4 50.4 
" style="fill:none;stroke:#000000;stroke-linecap:square;stroke-linejoin:miter;stroke-width:0.8;"/>
   </g>
   <g id="patch_5">
    <path d="M 50.4 698.4 
L 698.4 698.4 
" style="fill:none;stroke:#000000;stroke-linecap:square;stroke-linejoin:miter;stroke-width:0.8;"/>
   </g>
   <g id="patch_6">
    <path d="M 50.4 50.4 
L 698.4 50.4 
" style="fill:none;stroke:#000000;stroke-linecap:square;stroke-linejoin:miter;stroke-width:0.8;"/>
   </g>
   <g id="text_1">
    <!-- Homo sapiens -->
    <g transform="translate(22.665938 435.910781)rotate(-90)scale(0.18 -0.18)">
     <defs>
      <path d="M 469 0 
L 469 4581 
L 1394 4581 
L 1394 2778 
L 3206 2778 
L 3206 4581 
L 4131 4581 
L 4131 0 
L 3206 0 
L 3206 2003 
L 1394 2003 
L 1394 0 
L 469 0 
z
" id="Arial-BoldMT-48" transform="scale(0.015625)"/>
      <path d="M 256 1706 
Q 256 2144 472 2553 
Q 688 2963 1083 3178 
Q 1478 3394 1966 3394 
Q 2719 3394 3200 2905 
Q 3681 2416 3681 1669 
Q 3681 916 3195 420 
Q 2709 -75 1972 -75 
Q 1516 -75 1102 131 
Q 688 338 472 736 
Q 256 1134 256 1706 
z
M 1156 1659 
Q 1156 1166 1390 903 
Q 1625 641 1969 641 
Q 2313 641 2545 903 
Q 2778 1166 2778 1666 
Q 2778 2153 2545 2415 
Q 2313 2678 1969 2678 
Q 1625 2678 1390 2415 
Q 1156 2153 1156 1659 
z
" id="Arial-BoldMT-6f" transform="scale(0.015625)"/>
      <path d="M 394 3319 
L 1203 3319 
L 1203 2866 
Q 1638 3394 2238 3394 
Q 2556 3394 2790 3262 
Q 3025 3131 3175 2866 
Q 3394 3131 3647 3262 
Q 3900 3394 4188 3394 
Q 4553 3394 4806 3245 
Q 5059 3097 5184 2809 
Q 5275 2597 5275 2122 
L 5275 0 
L 4397 0 
L 4397 1897 
Q 4397 2391 4306 2534 
Q 4184 2722 3931 2722 
Q 3747 2722 3584 2609 
Q 3422 2497 3350 2280 
Q 3278 2063 3278 1594 
L 3278 0 
L 2400 0 
L 2400 1819 
Q 2400 2303 2353 2443 
Q 2306 2584 2207 2653 
Q 2109 2722 1941 2722 
Q 1738 2722 1575 2612 
Q 1413 2503 1342 2297 
Q 1272 2091 1272 1613 
L 1272 0 
L 394 0 
L 394 3319 
z
" id="Arial-BoldMT-6d" transform="scale(0.015625)"/>
      <path id="Arial-BoldMT-20" transform="scale(0.015625)"/>
      <path d="M 150 947 
L 1031 1081 
Q 1088 825 1259 692 
Q 1431 559 1741 559 
Q 2081 559 2253 684 
Q 2369 772 2369 919 
Q 2369 1019 2306 1084 
Q 2241 1147 2013 1200 
Q 950 1434 666 1628 
Q 272 1897 272 2375 
Q 272 2806 612 3100 
Q 953 3394 1669 3394 
Q 2350 3394 2681 3172 
Q 3013 2950 3138 2516 
L 2309 2363 
Q 2256 2556 2107 2659 
Q 1959 2763 1684 2763 
Q 1338 2763 1188 2666 
Q 1088 2597 1088 2488 
Q 1088 2394 1175 2328 
Q 1294 2241 1995 2081 
Q 2697 1922 2975 1691 
Q 3250 1456 3250 1038 
Q 3250 581 2869 253 
Q 2488 -75 1741 -75 
Q 1063 -75 667 200 
Q 272 475 150 947 
z
" id="Arial-BoldMT-73" transform="scale(0.015625)"/>
      <path d="M 1116 2306 
L 319 2450 
Q 453 2931 781 3162 
Q 1109 3394 1756 3394 
Q 2344 3394 2631 3255 
Q 2919 3116 3036 2902 
Q 3153 2688 3153 2116 
L 3144 1091 
Q 3144 653 3186 445 
Q 3228 238 3344 0 
L 2475 0 
Q 2441 88 2391 259 
Q 2369 338 2359 363 
Q 2134 144 1878 34 
Q 1622 -75 1331 -75 
Q 819 -75 523 203 
Q 228 481 228 906 
Q 228 1188 362 1408 
Q 497 1628 739 1745 
Q 981 1863 1438 1950 
Q 2053 2066 2291 2166 
L 2291 2253 
Q 2291 2506 2166 2614 
Q 2041 2722 1694 2722 
Q 1459 2722 1328 2630 
Q 1197 2538 1116 2306 
z
M 2291 1594 
Q 2122 1538 1756 1459 
Q 1391 1381 1278 1306 
Q 1106 1184 1106 997 
Q 1106 813 1243 678 
Q 1381 544 1594 544 
Q 1831 544 2047 700 
Q 2206 819 2256 991 
Q 2291 1103 2291 1419 
L 2291 1594 
z
" id="Arial-BoldMT-61" transform="scale(0.015625)"/>
      <path d="M 434 3319 
L 1253 3319 
L 1253 2831 
Q 1413 3081 1684 3237 
Q 1956 3394 2288 3394 
Q 2866 3394 3269 2941 
Q 3672 2488 3672 1678 
Q 3672 847 3265 386 
Q 2859 -75 2281 -75 
Q 2006 -75 1782 34 
Q 1559 144 1313 409 
L 1313 -1263 
L 434 -1263 
L 434 3319 
z
M 1303 1716 
Q 1303 1156 1525 889 
Q 1747 622 2066 622 
Q 2372 622 2575 867 
Q 2778 1113 2778 1672 
Q 2778 2194 2568 2447 
Q 2359 2700 2050 2700 
Q 1728 2700 1515 2451 
Q 1303 2203 1303 1716 
z
" id="Arial-BoldMT-70" transform="scale(0.015625)"/>
      <path d="M 459 3769 
L 459 4581 
L 1338 4581 
L 1338 3769 
L 459 3769 
z
M 459 0 
L 459 3319 
L 1338 3319 
L 1338 0 
L 459 0 
z
" id="Arial-BoldMT-69" transform="scale(0.015625)"/>
      <path d="M 2381 1056 
L 3256 909 
Q 3088 428 2723 176 
Q 2359 -75 1813 -75 
Q 947 -75 531 491 
Q 203 944 203 1634 
Q 203 2459 634 2926 
Q 1066 3394 1725 3394 
Q 2466 3394 2894 2905 
Q 3322 2416 3303 1406 
L 1103 1406 
Q 1113 1016 1316 798 
Q 1519 581 1822 581 
Q 2028 581 2168 693 
Q 2309 806 2381 1056 
z
M 2431 1944 
Q 2422 2325 2234 2523 
Q 2047 2722 1778 2722 
Q 1491 2722 1303 2513 
Q 1116 2303 1119 1944 
L 2431 1944 
z
" id="Arial-BoldMT-65" transform="scale(0.015625)"/>
      <path d="M 3478 0 
L 2600 0 
L 2600 1694 
Q 2600 2231 2544 2389 
Q 2488 2547 2361 2634 
Q 2234 2722 2056 2722 
Q 1828 2722 1647 2597 
Q 1466 2472 1398 2265 
Q 1331 2059 1331 1503 
L 1331 0 
L 453 0 
L 453 3319 
L 1269 3319 
L 1269 2831 
Q 1703 3394 2363 3394 
Q 2653 3394 2893 3289 
Q 3134 3184 3257 3021 
Q 3381 2859 3429 2653 
Q 3478 2447 3478 2063 
L 3478 0 
z
" id="Arial-BoldMT-6e" transform="scale(0.015625)"/>
     </defs>
     <use xlink:href="#Arial-BoldMT-48"/>
     <use x="72.216797" xlink:href="#Arial-BoldMT-6f"/>
     <use x="133.300781" xlink:href="#Arial-BoldMT-6d"/>
     <use x="222.216797" xlink:href="#Arial-BoldMT-6f"/>
     <use x="283.300781" xlink:href="#Arial-BoldMT-20"/>
     <use x="311.083984" xlink:href="#Arial-BoldMT-73"/>
     <use x="366.699219" xlink:href="#Arial-BoldMT-61"/>
     <use x="422.314453" xlink:href="#Arial-BoldMT-70"/>
     <use x="483.398438" xlink:href="#Arial-BoldMT-69"/>
     <use x="511.181641" xlink:href="#Arial-BoldMT-65"/>
     <use x="566.796875" xlink:href="#Arial-BoldMT-6e"/>
     <use x="627.880859" xlink:href="#Arial-BoldMT-73"/>
    </g>
   </g>
   <g id="text_2">
    <!-- Pan troglodytes -->
    <g transform="translate(306.395156 22.547812)scale(0.18 -0.18)">
     <defs>
      <path d="M 466 0 
L 466 4581 
L 1950 4581 
Q 2794 4581 3050 4513 
Q 3444 4409 3709 4064 
Q 3975 3719 3975 3172 
Q 3975 2750 3822 2462 
Q 3669 2175 3433 2011 
Q 3197 1847 2953 1794 
Q 2622 1728 1994 1728 
L 1391 1728 
L 1391 0 
L 466 0 
z
M 1391 3806 
L 1391 2506 
L 1897 2506 
Q 2444 2506 2628 2578 
Q 2813 2650 2917 2803 
Q 3022 2956 3022 3159 
Q 3022 3409 2875 3571 
Q 2728 3734 2503 3775 
Q 2338 3806 1838 3806 
L 1391 3806 
z
" id="Arial-BoldMT-50" transform="scale(0.015625)"/>
      <path d="M 1981 3319 
L 1981 2619 
L 1381 2619 
L 1381 1281 
Q 1381 875 1398 808 
Q 1416 741 1477 697 
Q 1538 653 1625 653 
Q 1747 653 1978 738 
L 2053 56 
Q 1747 -75 1359 -75 
Q 1122 -75 931 4 
Q 741 84 652 211 
Q 563 338 528 553 
Q 500 706 500 1172 
L 500 2619 
L 97 2619 
L 97 3319 
L 500 3319 
L 500 3978 
L 1381 4491 
L 1381 3319 
L 1981 3319 
z
" id="Arial-BoldMT-74" transform="scale(0.015625)"/>
      <path d="M 1300 0 
L 422 0 
L 422 3319 
L 1238 3319 
L 1238 2847 
Q 1447 3181 1614 3287 
Q 1781 3394 1994 3394 
Q 2294 3394 2572 3228 
L 2300 2463 
Q 2078 2606 1888 2606 
Q 1703 2606 1575 2504 
Q 1447 2403 1373 2137 
Q 1300 1872 1300 1025 
L 1300 0 
z
" id="Arial-BoldMT-72" transform="scale(0.015625)"/>
      <path d="M 378 -219 
L 1381 -341 
Q 1406 -516 1497 -581 
Q 1622 -675 1891 -675 
Q 2234 -675 2406 -572 
Q 2522 -503 2581 -350 
Q 2622 -241 2622 53 
L 2622 538 
Q 2228 0 1628 0 
Q 959 0 569 566 
Q 263 1013 263 1678 
Q 263 2513 664 2953 
Q 1066 3394 1663 3394 
Q 2278 3394 2678 2853 
L 2678 3319 
L 3500 3319 
L 3500 341 
Q 3500 -247 3403 -537 
Q 3306 -828 3131 -993 
Q 2956 -1159 2664 -1253 
Q 2372 -1347 1925 -1347 
Q 1081 -1347 728 -1058 
Q 375 -769 375 -325 
Q 375 -281 378 -219 
z
M 1163 1728 
Q 1163 1200 1367 954 
Q 1572 709 1872 709 
Q 2194 709 2416 961 
Q 2638 1213 2638 1706 
Q 2638 2222 2425 2472 
Q 2213 2722 1888 2722 
Q 1572 2722 1367 2476 
Q 1163 2231 1163 1728 
z
" id="Arial-BoldMT-67" transform="scale(0.015625)"/>
      <path d="M 459 0 
L 459 4581 
L 1338 4581 
L 1338 0 
L 459 0 
z
" id="Arial-BoldMT-6c" transform="scale(0.015625)"/>
      <path d="M 3503 0 
L 2688 0 
L 2688 488 
Q 2484 203 2207 64 
Q 1931 -75 1650 -75 
Q 1078 -75 670 386 
Q 263 847 263 1672 
Q 263 2516 659 2955 
Q 1056 3394 1663 3394 
Q 2219 3394 2625 2931 
L 2625 4581 
L 3503 4581 
L 3503 0 
z
M 1159 1731 
Q 1159 1200 1306 963 
Q 1519 619 1900 619 
Q 2203 619 2415 876 
Q 2628 1134 2628 1647 
Q 2628 2219 2422 2470 
Q 2216 2722 1894 2722 
Q 1581 2722 1370 2473 
Q 1159 2225 1159 1731 
z
" id="Arial-BoldMT-64" transform="scale(0.015625)"/>
      <path d="M 44 3319 
L 978 3319 
L 1772 963 
L 2547 3319 
L 3456 3319 
L 2284 125 
L 2075 -453 
Q 1959 -744 1854 -897 
Q 1750 -1050 1614 -1145 
Q 1478 -1241 1279 -1294 
Q 1081 -1347 831 -1347 
Q 578 -1347 334 -1294 
L 256 -606 
Q 463 -647 628 -647 
Q 934 -647 1081 -467 
Q 1228 -288 1306 -9 
L 44 3319 
z
" id="Arial-BoldMT-79" transform="scale(0.015625)"/>
     </defs>
     <use xlink:href="#Arial-BoldMT-50"/>
     <use x="66.699219" xlink:href="#Arial-BoldMT-61"/>
     <use x="122.314453" xlink:href="#Arial-BoldMT-6e"/>
     <use x="183.398438" xlink:href="#Arial-BoldMT-20"/>
     <use x="211.181641" xlink:href="#Arial-BoldMT-74"/>
     <use x="244.482422" xlink:href="#Arial-BoldMT-72"/>
     <use x="283.398438" xlink:href="#Arial-BoldMT-6f"/>
     <use x="344.482422" xlink:href="#Arial-BoldMT-67"/>
     <use x="405.566406" xlink:href="#Arial-BoldMT-6c"/>
     <use x="433.349609" xlink:href="#Arial-BoldMT-6f"/>
     <use x="494.433594" xlink:href="#Arial-BoldMT-64"/>
     <use x="555.517578" xlink:href="#Arial-BoldMT-79"/>
     <use x="611.132812" xlink:href="#Arial-BoldMT-74"/>
     <use x="644.433594" xlink:href="#Arial-BoldMT-65"/>
     <use x="700.048828" xlink:href="#Arial-BoldMT-73"/>
    </g>
   </g>
  </g>
 </g>
 <defs>
  <clipPath id="p07c5735446">
   <rect height="648" width="648" x="50.4" y="50.4"/>
  </clipPath>
 </defs>
</svg>
