<?xml version="1.0" encoding="utf-8" standalone="no"?>
<!DOCTYPE svg PUBLIC "-//W3C//DTD SVG 1.1//EN"
  "http://www.w3.org/Graphics/SVG/1.1/DTD/svg11.dtd">
<!-- Created with matplotlib (https://matplotlib.org/) -->
<svg height="345.6pt" version="1.1" viewBox="0 0 658.08 345.6" width="658.08pt" xmlns="http://www.w3.org/2000/svg" xmlns:xlink="http://www.w3.org/1999/xlink">
 <metadata>
  <rdf:RDF xmlns:cc="http://creativecommons.org/ns#" xmlns:dc="http://purl.org/dc/elements/1.1/" xmlns:rdf="http://www.w3.org/1999/02/22-rdf-syntax-ns#">
   <cc:Work>
    <dc:type rdf:resource="http://purl.org/dc/dcmitype/StillImage"/>
    <dc:date>2021-04-12T14:16:31.786568</dc:date>
    <dc:format>image/svg+xml</dc:format>
    <dc:creator>
     <cc:Agent>
      <dc:title>Matplotlib v3.3.0, https://matplotlib.org/</dc:title>
     </cc:Agent>
    </dc:creator>
   </cc:Work>
  </rdf:RDF>
 </metadata>
 <defs>
  <style type="text/css">*{stroke-linecap:butt;stroke-linejoin:round;}</style>
 </defs>
 <g id="figure_1">
  <g id="patch_1">
   <path d="M 0 345.6 
L 658.08 345.6 
L 658.08 0 
L 0 0 
z
" style="fill:#ffffff;"/>
  </g>
  <g id="axes_1">
   <g id="patch_2">
    <path d="M 82.26 307.584 
L 592.272 307.584 
L 592.272 41.472 
L 82.26 41.472 
z
" style="fill:#ffffff;"/>
   </g>
   <g id="matplotlib.axis_1">
    <g id="xtick_1">
     <g id="line2d_1">
      <defs>
       <path d="M 0 0 
L 0 3.5 
" id="m959e7cf9d8" style="stroke:#000000;stroke-width:0.8;"/>
      </defs>
      <g>
       <use style="stroke:#000000;stroke-width:0.8;" x="105.442364" xlink:href="#m959e7cf9d8" y="307.584"/>
      </g>
     </g>
     <g id="text_1">
      <!-- 0 -->
      <g transform="translate(102.261114 322.182437)scale(0.1 -0.1)">
       <defs>
        <path d="M 31.78125 66.40625 
Q 24.171875 66.40625 20.328125 58.90625 
Q 16.5 51.421875 16.5 36.375 
Q 16.5 21.390625 20.328125 13.890625 
Q 24.171875 6.390625 31.78125 6.390625 
Q 39.453125 6.390625 43.28125 13.890625 
Q 47.125 21.390625 47.125 36.375 
Q 47.125 51.421875 43.28125 58.90625 
Q 39.453125 66.40625 31.78125 66.40625 
z
M 31.78125 74.21875 
Q 44.046875 74.21875 50.515625 64.515625 
Q 56.984375 54.828125 56.984375 36.375 
Q 56.984375 17.96875 50.515625 8.265625 
Q 44.046875 -1.421875 31.78125 -1.421875 
Q 19.53125 -1.421875 13.0625 8.265625 
Q 6.59375 17.96875 6.59375 36.375 
Q 6.59375 54.828125 13.0625 64.515625 
Q 19.53125 74.21875 31.78125 74.21875 
z
" id="DejaVuSans-48"/>
       </defs>
       <use xlink:href="#DejaVuSans-48"/>
      </g>
     </g>
    </g>
    <g id="xtick_2">
     <g id="line2d_2">
      <g>
       <use style="stroke:#000000;stroke-width:0.8;" x="203.052316" xlink:href="#m959e7cf9d8" y="307.584"/>
      </g>
     </g>
     <g id="text_2">
      <!-- 500 -->
      <g transform="translate(193.508566 322.182437)scale(0.1 -0.1)">
       <defs>
        <path d="M 10.796875 72.90625 
L 49.515625 72.90625 
L 49.515625 64.59375 
L 19.828125 64.59375 
L 19.828125 46.734375 
Q 21.96875 47.46875 24.109375 47.828125 
Q 26.265625 48.1875 28.421875 48.1875 
Q 40.625 48.1875 47.75 41.5 
Q 54.890625 34.8125 54.890625 23.390625 
Q 54.890625 11.625 47.5625 5.09375 
Q 40.234375 -1.421875 26.90625 -1.421875 
Q 22.3125 -1.421875 17.546875 -0.640625 
Q 12.796875 0.140625 7.71875 1.703125 
L 7.71875 11.625 
Q 12.109375 9.234375 16.796875 8.0625 
Q 21.484375 6.890625 26.703125 6.890625 
Q 35.15625 6.890625 40.078125 11.328125 
Q 45.015625 15.765625 45.015625 23.390625 
Q 45.015625 31 40.078125 35.4375 
Q 35.15625 39.890625 26.703125 39.890625 
Q 22.75 39.890625 18.8125 39.015625 
Q 14.890625 38.140625 10.796875 36.28125 
z
" id="DejaVuSans-53"/>
       </defs>
       <use xlink:href="#DejaVuSans-53"/>
       <use x="63.623047" xlink:href="#DejaVuSans-48"/>
       <use x="127.246094" xlink:href="#DejaVuSans-48"/>
      </g>
     </g>
    </g>
    <g id="xtick_3">
     <g id="line2d_3">
      <g>
       <use style="stroke:#000000;stroke-width:0.8;" x="300.662268" xlink:href="#m959e7cf9d8" y="307.584"/>
      </g>
     </g>
     <g id="text_3">
      <!-- 1000 -->
      <g transform="translate(287.937268 322.182437)scale(0.1 -0.1)">
       <defs>
        <path d="M 12.40625 8.296875 
L 28.515625 8.296875 
L 28.515625 63.921875 
L 10.984375 60.40625 
L 10.984375 69.390625 
L 28.421875 72.90625 
L 38.28125 72.90625 
L 38.28125 8.296875 
L 54.390625 8.296875 
L 54.390625 0 
L 12.40625 0 
z
" id="DejaVuSans-49"/>
       </defs>
       <use xlink:href="#DejaVuSans-49"/>
       <use x="63.623047" xlink:href="#DejaVuSans-48"/>
       <use x="127.246094" xlink:href="#DejaVuSans-48"/>
       <use x="190.869141" xlink:href="#DejaVuSans-48"/>
      </g>
     </g>
    </g>
    <g id="xtick_4">
     <g id="line2d_4">
      <g>
       <use style="stroke:#000000;stroke-width:0.8;" x="398.27222" xlink:href="#m959e7cf9d8" y="307.584"/>
      </g>
     </g>
     <g id="text_4">
      <!-- 1500 -->
      <g transform="translate(385.54722 322.182437)scale(0.1 -0.1)">
       <use xlink:href="#DejaVuSans-49"/>
       <use x="63.623047" xlink:href="#DejaVuSans-53"/>
       <use x="127.246094" xlink:href="#DejaVuSans-48"/>
       <use x="190.869141" xlink:href="#DejaVuSans-48"/>
      </g>
     </g>
    </g>
    <g id="xtick_5">
     <g id="line2d_5">
      <g>
       <use style="stroke:#000000;stroke-width:0.8;" x="495.882172" xlink:href="#m959e7cf9d8" y="307.584"/>
      </g>
     </g>
     <g id="text_5">
      <!-- 2000 -->
      <g transform="translate(483.157172 322.182437)scale(0.1 -0.1)">
       <defs>
        <path d="M 19.1875 8.296875 
L 53.609375 8.296875 
L 53.609375 0 
L 7.328125 0 
L 7.328125 8.296875 
Q 12.9375 14.109375 22.625 23.890625 
Q 32.328125 33.6875 34.8125 36.53125 
Q 39.546875 41.84375 41.421875 45.53125 
Q 43.3125 49.21875 43.3125 52.78125 
Q 43.3125 58.59375 39.234375 62.25 
Q 35.15625 65.921875 28.609375 65.921875 
Q 23.96875 65.921875 18.8125 64.3125 
Q 13.671875 62.703125 7.8125 59.421875 
L 7.8125 69.390625 
Q 13.765625 71.78125 18.9375 73 
Q 24.125 74.21875 28.421875 74.21875 
Q 39.75 74.21875 46.484375 68.546875 
Q 53.21875 62.890625 53.21875 53.421875 
Q 53.21875 48.921875 51.53125 44.890625 
Q 49.859375 40.875 45.40625 35.40625 
Q 44.1875 33.984375 37.640625 27.21875 
Q 31.109375 20.453125 19.1875 8.296875 
z
" id="DejaVuSans-50"/>
       </defs>
       <use xlink:href="#DejaVuSans-50"/>
       <use x="63.623047" xlink:href="#DejaVuSans-48"/>
       <use x="127.246094" xlink:href="#DejaVuSans-48"/>
       <use x="190.869141" xlink:href="#DejaVuSans-48"/>
      </g>
     </g>
    </g>
   </g>
   <g id="matplotlib.axis_2">
    <g id="ytick_1">
     <g id="line2d_6">
      <defs>
       <path d="M 0 0 
L -3.5 0 
" id="m91e97ffe6a" style="stroke:#000000;stroke-width:0.8;"/>
      </defs>
      <g>
       <use style="stroke:#000000;stroke-width:0.8;" x="82.26" xlink:href="#m91e97ffe6a" y="295.488"/>
      </g>
     </g>
     <g id="text_6">
      <!-- −1.00 -->
      <g transform="translate(44.614688 299.287219)scale(0.1 -0.1)">
       <defs>
        <path d="M 10.59375 35.5 
L 73.1875 35.5 
L 73.1875 27.203125 
L 10.59375 27.203125 
z
" id="DejaVuSans-8722"/>
        <path d="M 10.6875 12.40625 
L 21 12.40625 
L 21 0 
L 10.6875 0 
z
" id="DejaVuSans-46"/>
       </defs>
       <use xlink:href="#DejaVuSans-8722"/>
       <use x="83.789062" xlink:href="#DejaVuSans-49"/>
       <use x="147.412109" xlink:href="#DejaVuSans-46"/>
       <use x="179.199219" xlink:href="#DejaVuSans-48"/>
       <use x="242.822266" xlink:href="#DejaVuSans-48"/>
      </g>
     </g>
    </g>
    <g id="ytick_2">
     <g id="line2d_7">
      <g>
       <use style="stroke:#000000;stroke-width:0.8;" x="82.26" xlink:href="#m91e97ffe6a" y="265.248"/>
      </g>
     </g>
     <g id="text_7">
      <!-- −0.75 -->
      <g transform="translate(44.614688 269.047219)scale(0.1 -0.1)">
       <defs>
        <path d="M 8.203125 72.90625 
L 55.078125 72.90625 
L 55.078125 68.703125 
L 28.609375 0 
L 18.3125 0 
L 43.21875 64.59375 
L 8.203125 64.59375 
z
" id="DejaVuSans-55"/>
       </defs>
       <use xlink:href="#DejaVuSans-8722"/>
       <use x="83.789062" xlink:href="#DejaVuSans-48"/>
       <use x="147.412109" xlink:href="#DejaVuSans-46"/>
       <use x="179.199219" xlink:href="#DejaVuSans-55"/>
       <use x="242.822266" xlink:href="#DejaVuSans-53"/>
      </g>
     </g>
    </g>
    <g id="ytick_3">
     <g id="line2d_8">
      <g>
       <use style="stroke:#000000;stroke-width:0.8;" x="82.26" xlink:href="#m91e97ffe6a" y="235.008"/>
      </g>
     </g>
     <g id="text_8">
      <!-- −0.50 -->
      <g transform="translate(44.614688 238.807219)scale(0.1 -0.1)">
       <use xlink:href="#DejaVuSans-8722"/>
       <use x="83.789062" xlink:href="#DejaVuSans-48"/>
       <use x="147.412109" xlink:href="#DejaVuSans-46"/>
       <use x="179.199219" xlink:href="#DejaVuSans-53"/>
       <use x="242.822266" xlink:href="#DejaVuSans-48"/>
      </g>
     </g>
    </g>
    <g id="ytick_4">
     <g id="line2d_9">
      <g>
       <use style="stroke:#000000;stroke-width:0.8;" x="82.26" xlink:href="#m91e97ffe6a" y="204.768"/>
      </g>
     </g>
     <g id="text_9">
      <!-- −0.25 -->
      <g transform="translate(44.614688 208.567219)scale(0.1 -0.1)">
       <use xlink:href="#DejaVuSans-8722"/>
       <use x="83.789062" xlink:href="#DejaVuSans-48"/>
       <use x="147.412109" xlink:href="#DejaVuSans-46"/>
       <use x="179.199219" xlink:href="#DejaVuSans-50"/>
       <use x="242.822266" xlink:href="#DejaVuSans-53"/>
      </g>
     </g>
    </g>
    <g id="ytick_5">
     <g id="line2d_10">
      <g>
       <use style="stroke:#000000;stroke-width:0.8;" x="82.26" xlink:href="#m91e97ffe6a" y="174.528"/>
      </g>
     </g>
     <g id="text_10">
      <!-- 0.00 -->
      <g transform="translate(52.994375 178.327219)scale(0.1 -0.1)">
       <use xlink:href="#DejaVuSans-48"/>
       <use x="63.623047" xlink:href="#DejaVuSans-46"/>
       <use x="95.410156" xlink:href="#DejaVuSans-48"/>
       <use x="159.033203" xlink:href="#DejaVuSans-48"/>
      </g>
     </g>
    </g>
    <g id="ytick_6">
     <g id="line2d_11">
      <g>
       <use style="stroke:#000000;stroke-width:0.8;" x="82.26" xlink:href="#m91e97ffe6a" y="144.288"/>
      </g>
     </g>
     <g id="text_11">
      <!-- 0.25 -->
      <g transform="translate(52.994375 148.087219)scale(0.1 -0.1)">
       <use xlink:href="#DejaVuSans-48"/>
       <use x="63.623047" xlink:href="#DejaVuSans-46"/>
       <use x="95.410156" xlink:href="#DejaVuSans-50"/>
       <use x="159.033203" xlink:href="#DejaVuSans-53"/>
      </g>
     </g>
    </g>
    <g id="ytick_7">
     <g id="line2d_12">
      <g>
       <use style="stroke:#000000;stroke-width:0.8;" x="82.26" xlink:href="#m91e97ffe6a" y="114.048"/>
      </g>
     </g>
     <g id="text_12">
      <!-- 0.50 -->
      <g transform="translate(52.994375 117.847219)scale(0.1 -0.1)">
       <use xlink:href="#DejaVuSans-48"/>
       <use x="63.623047" xlink:href="#DejaVuSans-46"/>
       <use x="95.410156" xlink:href="#DejaVuSans-53"/>
       <use x="159.033203" xlink:href="#DejaVuSans-48"/>
      </g>
     </g>
    </g>
    <g id="ytick_8">
     <g id="line2d_13">
      <g>
       <use style="stroke:#000000;stroke-width:0.8;" x="82.26" xlink:href="#m91e97ffe6a" y="83.808"/>
      </g>
     </g>
     <g id="text_13">
      <!-- 0.75 -->
      <g transform="translate(52.994375 87.607219)scale(0.1 -0.1)">
       <use xlink:href="#DejaVuSans-48"/>
       <use x="63.623047" xlink:href="#DejaVuSans-46"/>
       <use x="95.410156" xlink:href="#DejaVuSans-55"/>
       <use x="159.033203" xlink:href="#DejaVuSans-53"/>
      </g>
     </g>
    </g>
    <g id="ytick_9">
     <g id="line2d_14">
      <g>
       <use style="stroke:#000000;stroke-width:0.8;" x="82.26" xlink:href="#m91e97ffe6a" y="53.568"/>
      </g>
     </g>
     <g id="text_14">
      <!-- 1.00 -->
      <g transform="translate(52.994375 57.367219)scale(0.1 -0.1)">
       <use xlink:href="#DejaVuSans-49"/>
       <use x="63.623047" xlink:href="#DejaVuSans-46"/>
       <use x="95.410156" xlink:href="#DejaVuSans-48"/>
       <use x="159.033203" xlink:href="#DejaVuSans-48"/>
      </g>
     </g>
    </g>
   </g>
   <g id="line2d_15">
    <path clip-path="url(#pf7e4113f43)" d="M 105.442364 222.912 
L 105.637584 229.509818 
L 105.832803 214.848 
L 106.418463 230.976 
L 107.004123 241.728 
L 107.394563 247.104 
L 107.589783 259.2 
L 107.785002 259.2 
L 107.980222 247.104 
L 108.175442 247.104 
L 108.565882 271.296 
L 109.541982 271.296 
L 109.737202 283.392 
L 111.689401 283.392 
L 111.88462 295.488 
L 112.07984 295.488 
L 112.27506 283.392 
L 114.617699 283.392 
L 114.812919 271.296 
L 115.593799 271.296 
L 115.789019 259.2 
L 115.984238 259.2 
L 116.179458 271.296 
L 116.765118 271.296 
L 116.960338 259.2 
L 117.155558 259.2 
L 117.350778 247.104 
L 119.107757 247.104 
L 119.302977 235.008 
L 119.498197 235.008 
L 119.693417 247.104 
L 120.669516 247.104 
L 120.864736 259.2 
L 121.059956 247.104 
L 121.450396 247.104 
L 121.645616 235.008 
L 122.426495 235.008 
L 122.621715 247.104 
L 123.012155 247.104 
L 123.207375 259.2 
L 124.769134 259.2 
L 125.159574 283.392 
L 125.354794 283.392 
L 125.550014 295.488 
L 127.111773 295.488 
L 127.306993 283.392 
L 129.063972 283.392 
L 129.259192 271.296 
L 131.016171 271.296 
L 131.211391 283.392 
L 136.872768 283.392 
L 137.067988 295.488 
L 137.263208 295.488 
L 137.458428 283.392 
L 141.167606 283.392 
L 141.362826 295.488 
L 142.534145 295.488 
L 142.729365 283.392 
L 143.705465 283.392 
L 143.900685 271.296 
L 144.486344 271.296 
L 144.681564 259.2 
L 145.657664 259.2 
L 145.852884 247.104 
L 146.438544 247.104 
L 146.633763 259.2 
L 147.024203 259.2 
L 147.219423 247.104 
L 147.609863 247.104 
L 147.805083 259.2 
L 148.390743 259.2 
L 148.585962 271.296 
L 149.562062 271.296 
L 149.757282 283.392 
L 150.928601 283.392 
L 151.123821 295.488 
L 151.319041 295.488 
L 151.514261 283.392 
L 154.05212 283.392 
L 154.24734 271.296 
L 154.63778 271.296 
L 154.832999 259.2 
L 155.028219 259.2 
L 155.223439 247.104 
L 155.418659 259.2 
L 155.613879 247.104 
L 157.761298 247.104 
L 157.956518 235.008 
L 158.151738 247.104 
L 158.542178 247.104 
L 158.737398 259.2 
L 158.932617 259.2 
L 159.127837 271.296 
L 159.323057 271.296 
L 159.518277 283.392 
L 160.494377 283.392 
L 160.689597 271.296 
L 161.470476 271.296 
L 161.665696 259.2 
L 161.860916 271.296 
L 164.398775 271.296 
L 164.593995 283.392 
L 165.570094 283.392 
L 165.765314 271.296 
L 168.498393 271.296 
L 168.693613 259.2 
L 169.279272 259.2 
L 169.669712 283.392 
L 171.231471 283.392 
L 171.426691 271.296 
L 172.402791 271.296 
L 172.598011 283.392 
L 172.793231 283.392 
L 172.988451 271.296 
L 174.74543 271.296 
L 174.94065 259.2 
L 175.135869 259.2 
L 175.331089 271.296 
L 175.916749 271.296 
L 176.111969 259.2 
L 176.892849 259.2 
L 177.088069 247.104 
L 177.673728 247.104 
L 177.868948 235.008 
L 178.649828 235.008 
L 178.845048 247.104 
L 179.821147 247.104 
L 180.016367 259.2 
L 180.602027 259.2 
L 180.992467 283.392 
L 181.773346 283.392 
L 181.968566 271.296 
L 183.139886 271.296 
L 183.725545 235.008 
L 184.896865 235.008 
L 185.092085 222.912 
L 185.287304 222.912 
L 185.482524 210.816 
L 185.872964 235.008 
L 187.044284 235.008 
L 187.629943 271.296 
L 187.825163 271.296 
L 188.020383 259.2 
L 188.801263 259.2 
L 188.996483 271.296 
L 189.191703 259.2 
L 189.386922 271.296 
L 191.729561 271.296 
L 191.924781 283.392 
L 192.510441 283.392 
L 192.705661 271.296 
L 193.68176 271.296 
L 193.87698 259.2 
L 194.26742 259.2 
L 194.46264 247.104 
L 195.24352 247.104 
L 195.43874 235.008 
L 196.414839 235.008 
L 196.610059 247.104 
L 196.805279 247.104 
L 197.000499 259.2 
L 197.586158 259.2 
L 197.781378 271.296 
L 198.171818 271.296 
L 198.367038 283.392 
L 199.147918 283.392 
L 199.343138 295.488 
L 199.928797 295.488 
L 200.124017 283.392 
L 201.490557 283.392 
L 202.271436 235.008 
L 202.466656 235.008 
L 202.661876 222.912 
L 203.833195 222.912 
L 204.028415 235.008 
L 205.394955 235.008 
L 205.785394 259.2 
L 205.980614 259.2 
L 206.175834 271.296 
L 206.371054 271.296 
L 206.566274 283.392 
L 207.932813 283.392 
L 208.323253 259.2 
L 209.494573 259.2 
L 209.689793 247.104 
L 209.885012 259.2 
L 210.861112 259.2 
L 211.056332 247.104 
L 211.837211 247.104 
L 212.227651 271.296 
L 212.813311 271.296 
L 213.008531 259.2 
L 214.76551 259.2 
L 214.96073 271.296 
L 215.74161 271.296 
L 215.936829 259.2 
L 216.327269 259.2 
L 216.522489 247.104 
L 216.717709 247.104 
L 216.912929 259.2 
L 217.303369 259.2 
L 217.498589 271.296 
L 219.646008 271.296 
L 219.841228 283.392 
L 220.231667 283.392 
L 220.426887 295.488 
L 220.622107 283.392 
L 221.402987 283.392 
L 221.598207 271.296 
L 225.307385 271.296 
L 225.502605 283.392 
L 225.697825 271.296 
L 228.235683 271.296 
L 228.430903 283.392 
L 231.163982 283.392 
L 231.749642 247.104 
L 232.920961 247.104 
L 233.116181 235.008 
L 233.311401 235.008 
L 233.506621 247.104 
L 234.2875 247.104 
L 234.48272 235.008 
L 234.87316 235.008 
L 235.06838 222.912 
L 235.2636 222.912 
L 235.65404 247.104 
L 236.825359 247.104 
L 237.020579 259.2 
L 238.191899 259.2 
L 238.387118 271.296 
L 238.777558 271.296 
L 239.167998 295.488 
L 243.853276 295.488 
L 244.048496 283.392 
L 245.024595 283.392 
L 245.219815 271.296 
L 246.586354 271.296 
L 246.781574 259.2 
L 247.757674 259.2 
L 247.952894 271.296 
L 248.928993 271.296 
L 249.124213 283.392 
L 250.295533 283.392 
L 250.490753 271.296 
L 250.685972 283.392 
L 252.638171 283.392 
L 252.833391 271.296 
L 254.199931 271.296 
L 254.395151 283.392 
L 255.76169 283.392 
L 255.95691 271.296 
L 256.54257 271.296 
L 256.737789 283.392 
L 259.666088 283.392 
L 259.861308 295.488 
L 265.327465 295.488 
L 265.522685 283.392 
L 268.450984 283.392 
L 268.646204 271.296 
L 269.231863 271.296 
L 269.427083 283.392 
L 271.964942 283.392 
L 272.160162 271.296 
L 272.355382 271.296 
L 272.550602 283.392 
L 275.86934 283.392 
L 276.06456 295.488 
L 277.431099 295.488 
L 277.626319 283.392 
L 278.797639 283.392 
L 278.992859 271.296 
L 280.164178 271.296 
L 280.359398 259.2 
L 281.335497 259.2 
L 281.530717 271.296 
L 281.725937 271.296 
L 281.921157 259.2 
L 282.702037 259.2 
L 282.897257 271.296 
L 284.068576 271.296 
L 284.263796 283.392 
L 285.630335 283.392 
L 285.825555 295.488 
L 289.925173 295.488 
L 290.120393 283.392 
L 290.706053 283.392 
L 290.901273 271.296 
L 293.829571 271.296 
L 294.024791 283.392 
L 294.220011 271.296 
L 294.610451 271.296 
L 294.805671 283.392 
L 296.17221 283.392 
L 296.36743 271.296 
L 297.733969 271.296 
L 297.929189 259.2 
L 298.124409 271.296 
L 300.467048 271.296 
L 300.662268 259.2 
L 301.638367 259.2 
L 301.833587 271.296 
L 302.028807 271.296 
L 302.224027 259.2 
L 303.590567 259.2 
L 303.785786 247.104 
L 303.981006 247.104 
L 304.176226 259.2 
L 304.371446 247.104 
L 304.566666 259.2 
L 305.933205 259.2 
L 306.128425 271.296 
L 306.714085 271.296 
L 307.104525 247.104 
L 307.299745 247.104 
L 307.494965 235.008 
L 307.690184 247.104 
L 307.885404 247.104 
L 308.080624 235.008 
L 308.275844 247.104 
L 308.471064 247.104 
L 308.861504 222.912 
L 310.618483 222.912 
L 310.813703 235.008 
L 311.204143 235.008 
L 311.399363 247.104 
L 311.594583 235.008 
L 311.789802 235.008 
L 311.985022 247.104 
L 312.375462 247.104 
L 312.765902 271.296 
L 313.546782 271.296 
L 313.742002 259.2 
L 314.718101 259.2 
L 314.913321 271.296 
L 315.303761 271.296 
L 315.498981 283.392 
L 317.45118 283.392 
L 317.6464 295.488 
L 317.84162 283.392 
L 320.184258 283.392 
L 320.379478 271.296 
L 321.160358 271.296 
L 321.355578 259.2 
L 321.550798 259.2 
L 321.746018 271.296 
L 322.136457 247.104 
L 324.088656 247.104 
L 324.283876 259.2 
L 325.064756 259.2 
L 325.259976 271.296 
L 325.650416 271.296 
L 326.040856 295.488 
L 327.407395 295.488 
L 327.602615 283.392 
L 331.311793 283.392 
L 331.507013 295.488 
L 333.849652 295.488 
L 334.044872 283.392 
L 335.801851 283.392 
L 335.997071 271.296 
L 337.75405 271.296 
L 337.94927 283.392 
L 339.706249 283.392 
L 339.901469 295.488 
L 343.220207 295.488 
L 343.415427 283.392 
L 344.196307 283.392 
L 344.391527 271.296 
L 346.343726 271.296 
L 346.734165 247.104 
L 347.124605 247.104 
L 347.319825 259.2 
L 348.100705 259.2 
L 348.295925 271.296 
L 350.248124 271.296 
L 350.638563 295.488 
L 351.029003 295.488 
L 351.419443 271.296 
L 352.785982 271.296 
L 352.981202 259.2 
L 353.176422 259.2 
L 353.371642 247.104 
L 355.128621 247.104 
L 355.323841 259.2 
L 356.69038 259.2 
L 356.8856 271.296 
L 357.08082 271.296 
L 357.27604 283.392 
L 357.66648 283.392 
L 357.8617 271.296 
L 358.837799 271.296 
L 359.033019 283.392 
L 360.594779 283.392 
L 360.789998 271.296 
L 361.180438 271.296 
L 361.375658 259.2 
L 361.570878 259.2 
L 361.766098 271.296 
L 364.499177 271.296 
L 364.694397 283.392 
L 365.084836 283.392 
L 365.280056 295.488 
L 369.574894 295.488 
L 369.770114 283.392 
L 370.355774 283.392 
L 370.550994 271.296 
L 371.527093 271.296 
L 371.722313 259.2 
L 373.479292 259.2 
L 373.674512 271.296 
L 374.260172 271.296 
L 374.455392 283.392 
L 375.431491 283.392 
L 375.626711 295.488 
L 381.288088 295.488 
L 381.483308 283.392 
L 384.216387 283.392 
L 384.411607 271.296 
L 384.997267 271.296 
L 385.192487 259.2 
L 385.387706 271.296 
L 386.559026 271.296 
L 386.754246 259.2 
L 389.877764 259.2 
L 390.072984 247.104 
L 390.463424 247.104 
L 390.658644 259.2 
L 392.025183 259.2 
L 392.220403 271.296 
L 392.806063 271.296 
L 393.001283 283.392 
L 393.782162 283.392 
L 393.977382 295.488 
L 396.124801 295.488 
L 396.320021 283.392 
L 397.88178 283.392 
L 398.077 271.296 
L 399.833979 271.296 
L 400.029199 259.2 
L 400.224419 271.296 
L 400.419639 259.2 
L 403.738377 259.2 
L 403.933597 271.296 
L 404.128817 271.296 
L 404.324037 283.392 
L 405.690576 283.392 
L 405.885796 295.488 
L 406.081016 283.392 
L 408.423655 283.392 
L 408.618875 271.296 
L 409.790194 271.296 
L 409.985414 283.392 
L 412.328053 283.392 
L 412.523273 295.488 
L 414.085032 295.488 
L 414.280252 283.392 
L 417.013331 283.392 
L 417.208551 271.296 
L 417.98943 271.296 
L 418.18465 283.392 
L 418.37987 271.296 
L 418.77031 271.296 
L 419.16075 247.104 
L 420.722509 247.104 
L 420.917729 235.008 
L 421.112949 247.104 
L 421.308169 247.104 
L 421.698609 222.912 
L 422.089048 222.912 
L 422.284268 235.008 
L 422.674708 235.008 
L 423.065148 259.2 
L 423.260368 259.2 
L 423.455588 247.104 
L 423.650808 247.104 
L 424.236467 210.816 
L 424.626907 210.816 
L 424.822127 222.912 
L 425.407787 222.912 
L 425.603007 235.008 
L 426.188666 235.008 
L 426.383886 222.912 
L 426.579106 222.912 
L 426.969546 198.72 
L 427.164766 198.72 
L 427.359986 210.816 
L 427.555206 210.816 
L 428.140865 247.104 
L 429.116965 247.104 
L 429.312185 259.2 
L 430.093064 259.2 
L 430.288284 271.296 
L 430.483504 271.296 
L 430.873944 295.488 
L 435.754442 295.488 
L 435.949662 283.392 
L 439.85406 283.392 
L 440.04928 271.296 
L 442.196699 271.296 
L 442.391918 259.2 
L 443.563238 259.2 
L 443.953678 283.392 
L 446.101097 283.392 
L 446.296317 295.488 
L 448.834175 295.488 
L 449.029395 283.392 
L 449.615055 283.392 
L 449.810275 271.296 
L 452.543353 271.296 
L 452.738573 259.2 
L 452.933793 271.296 
L 453.519453 271.296 
L 453.714673 283.392 
L 456.447752 283.392 
L 456.642971 295.488 
L 457.619071 295.488 
L 458.204731 259.2 
L 458.79039 259.2 
L 458.98561 247.104 
L 459.18083 247.104 
L 459.37605 235.008 
L 461.133029 235.008 
L 461.328249 222.912 
L 461.523469 222.912 
L 461.913909 247.104 
L 462.694789 247.104 
L 462.890008 259.2 
L 463.085228 259.2 
L 463.280448 271.296 
L 465.037427 271.296 
L 465.232647 283.392 
L 465.818307 283.392 
L 466.013527 295.488 
L 466.208747 283.392 
L 466.989626 283.392 
L 468.160946 210.816 
L 468.356166 210.816 
L 469.917925 114.048 
L 470.308365 114.048 
L 470.894024 77.76 
L 472.065344 77.76 
L 472.260564 65.664 
L 473.041443 65.664 
L 473.236663 77.76 
L 474.017543 77.76 
L 474.212763 65.664 
L 476.360182 65.664 
L 476.555402 77.76 
L 476.945842 77.76 
L 477.141061 65.664 
L 479.28848 65.664 
L 479.4837 77.76 
L 480.26458 77.76 
L 480.4598 65.664 
L 481.240679 65.664 
L 481.435899 77.76 
L 483.192878 77.76 
L 483.388098 65.664 
L 483.778538 65.664 
L 483.973758 77.76 
L 485.535517 77.76 
L 485.730737 89.856 
L 488.854256 89.856 
L 489.049476 101.952 
L 489.244696 89.856 
L 489.439915 89.856 
L 489.635135 77.76 
L 491.587334 77.76 
L 491.782554 65.664 
L 492.563434 65.664 
L 492.758654 77.76 
L 492.953874 65.664 
L 494.320413 65.664 
L 494.515633 77.76 
L 496.467832 77.76 
L 496.663052 65.664 
L 497.834371 65.664 
L 498.029591 77.76 
L 498.224811 77.76 
L 498.420031 65.664 
L 501.738769 65.664 
L 501.933989 53.568 
L 502.910089 53.568 
L 503.105309 65.664 
L 505.643167 65.664 
L 505.838387 77.76 
L 506.814487 77.76 
L 507.009707 65.664 
L 507.400147 65.664 
L 507.595367 77.76 
L 509.547566 77.76 
L 509.742785 65.664 
L 511.304545 65.664 
L 511.499765 53.568 
L 514.623283 53.568 
L 514.818503 65.664 
L 516.380262 65.664 
L 516.575482 77.76 
L 517.746802 77.76 
L 517.942021 89.856 
L 518.527681 89.856 
L 518.722901 77.76 
L 520.28466 77.76 
L 520.47988 65.664 
L 521.6512 65.664 
L 521.84642 53.568 
L 522.432079 53.568 
L 522.627299 65.664 
L 523.603399 65.664 
L 523.798619 77.76 
L 525.165158 77.76 
L 525.360378 89.856 
L 525.750818 89.856 
L 525.946038 101.952 
L 526.336477 101.952 
L 526.531697 89.856 
L 527.507797 89.856 
L 527.703017 77.76 
L 529.069556 77.76 
L 529.264776 65.664 
L 529.655216 65.664 
L 529.850436 53.568 
L 530.045656 65.664 
L 530.240875 65.664 
L 530.436095 77.76 
L 533.754834 77.76 
L 533.950054 65.664 
L 534.145273 65.664 
L 534.340493 53.568 
L 534.926153 53.568 
L 535.121373 65.664 
L 538.440111 65.664 
L 538.830551 89.856 
L 539.025771 77.76 
L 542.344509 77.76 
L 542.734949 53.568 
L 556.595562 53.568 
L 556.790782 65.664 
L 559.133421 65.664 
L 559.328641 77.76 
L 560.304741 77.76 
L 560.499961 89.856 
L 560.69518 77.76 
L 561.08562 77.76 
L 561.28084 89.856 
L 561.47606 89.856 
L 561.67128 101.952 
L 563.037819 101.952 
L 563.233039 89.856 
L 564.013919 89.856 
L 564.209139 101.952 
L 564.404359 89.856 
L 564.599579 89.856 
L 564.794798 101.952 
L 564.990018 101.952 
L 565.185238 89.856 
L 565.380458 89.856 
L 565.575678 77.76 
L 567.332657 77.76 
L 567.918317 82.029176 
L 568.113537 68.688 
L 568.503977 70.848 
L 568.699197 53.568 
L 569.089636 53.568 
L 569.089636 53.568 
" style="fill:none;stroke:#1f77b4;stroke-linecap:square;stroke-width:1.5;"/>
   </g>
   <g id="patch_3">
    <path d="M 82.26 307.584 
L 82.26 41.472 
" style="fill:none;stroke:#000000;stroke-linecap:square;stroke-linejoin:miter;stroke-width:0.8;"/>
   </g>
   <g id="patch_4">
    <path d="M 592.272 307.584 
L 592.272 41.472 
" style="fill:none;stroke:#000000;stroke-linecap:square;stroke-linejoin:miter;stroke-width:0.8;"/>
   </g>
   <g id="patch_5">
    <path d="M 82.26 307.584 
L 592.272 307.584 
" style="fill:none;stroke:#000000;stroke-linecap:square;stroke-linejoin:miter;stroke-width:0.8;"/>
   </g>
   <g id="patch_6">
    <path d="M 82.26 41.472 
L 592.272 41.472 
" style="fill:none;stroke:#000000;stroke-linecap:square;stroke-linejoin:miter;stroke-width:0.8;"/>
   </g>
  </g>
 </g>
 <defs>
  <clipPath id="pf7e4113f43">
   <rect height="266.112" width="510.012" x="82.26" y="41.472"/>
  </clipPath>
 </defs>
</svg>
